<svg width="61" height="61" viewBox="0 0 61 61" fill="none" xmlns="http://www.w3.org/2000/svg">
<g clip-path="url(#clip0_196_696)">
<path d="M38.972 44.0556C38.972 44.505 38.7935 44.936 38.4757 45.2537C38.1579 45.5715 37.727 45.75 37.2776 45.75H13.5553C13.1826 45.75 12.8267 46.0889 12.5217 46.3092L6.77756 50.8334V23.7222C6.77756 23.2729 6.95608 22.8419 7.27385 22.5241C7.59162 22.2063 8.02261 22.0278 8.47201 22.0278H15.0126V18.6389H8.47201C7.12382 18.6389 5.83086 19.1745 4.87755 20.1278C3.92424 21.0811 3.38867 22.3741 3.38867 23.7222V54.2222C3.39119 54.5369 3.4813 54.8447 3.6489 55.1111C3.81649 55.3774 4.05496 55.5918 4.33756 55.7303C4.60982 55.8541 4.91001 55.9037 5.20761 55.8739C5.50522 55.8441 5.78965 55.7361 6.03201 55.5609L14.7584 49.1389H37.5317C38.1739 49.1579 38.8132 49.0448 39.4099 48.8067C40.0067 48.5686 40.5482 48.2105 41.0009 47.7546C41.4536 47.2987 41.8079 46.7547 42.0418 46.1563C42.2758 45.558 42.3844 44.9179 42.3609 44.2759V42.3611H38.972V44.0556Z" fill="black"/>
<path d="M52.5276 6.77777H23.722C22.3738 6.77777 21.0809 7.31334 20.1275 8.26665C19.1742 9.21996 18.6387 10.5129 18.6387 11.8611V32.1944C18.6387 33.5426 19.1742 34.8356 20.1275 35.7889C21.0809 36.7422 22.3738 37.2778 23.722 37.2778H46.6817L54.7812 43.5642C55.022 43.7422 55.3056 43.8532 55.6032 43.886C55.9009 43.9187 56.2019 43.872 56.4756 43.7506C56.764 43.6132 57.0076 43.3972 57.1785 43.1274C57.3494 42.8576 57.4405 42.5449 57.4415 42.2256V11.8611C57.4422 10.5418 56.9299 9.27384 56.013 8.32525C55.096 7.37667 53.8462 6.82175 52.5276 6.77777V6.77777ZM54.222 38.8706L48.2914 34.2447C47.9957 34.0152 47.6322 33.89 47.2578 33.8889H23.722C23.2726 33.8889 22.8416 33.7104 22.5239 33.3926C22.2061 33.0748 22.0276 32.6438 22.0276 32.1944V11.8611C22.0276 11.4117 22.2061 10.9807 22.5239 10.663C22.8416 10.3452 23.2726 10.1667 23.722 10.1667H52.5276C52.9805 10.2078 53.4028 10.4131 53.7149 10.7439C54.027 11.0747 54.2073 11.5082 54.222 11.9628V38.8706Z" fill="black"/>
</g>
<defs>
<clipPath id="clip0_196_696">
<rect width="61" height="61" fill="white"/>
</clipPath>
</defs>
</svg>
