<svg width="80" height="20" viewBox="0 0 157 31" fill="none" xmlns="http://www.w3.org/2000/svg">
<path d="M15.5 0L18.98 10.7102H30.2414L21.1307 17.3295L24.6107 28.0398L15.5 21.4205L6.38933 28.0398L9.8693 17.3295L0.758624 10.7102H12.02L15.5 0Z" fill="#FCC700"/>
<path d="M46.5 0L49.98 10.7102H61.2414L52.1307 17.3295L55.6107 28.0398L46.5 21.4205L37.3893 28.0398L40.8693 17.3295L31.7586 10.7102H43.02L46.5 0Z" fill="#FCC700"/>
<path d="M78.5 0L81.98 10.7102H93.2414L84.1307 17.3295L87.6107 28.0398L78.5 21.4205L69.3893 28.0398L72.8693 17.3295L63.7586 10.7102H75.02L78.5 0Z" fill="#FCC700"/>
<path d="M110.5 0L113.98 10.7102H125.241L116.131 17.3295L119.611 28.0398L110.5 21.4205L101.389 28.0398L104.869 17.3295L95.7586 10.7102H107.02L110.5 0Z" fill="#FCC700"/>
<path d="M141.5 0L144.98 10.7102H156.241L147.131 17.3295L150.611 28.0398L141.5 21.4205L132.389 28.0398L135.869 17.3295L126.759 10.7102H138.02L141.5 0Z" fill="#FCC700"/>
</svg>
